<?xml version="1.0" encoding="UTF-8"?>
<svg width="64" height="64" viewBox="0 0 64 64" fill="none" xmlns="http://www.w3.org/2000/svg">
  <defs>
    <linearGradient id="homeGradient" x1="0%" y1="0%" x2="100%" y2="100%">
      <stop offset="0%" stop-color="#00D9FF"/>
      <stop offset="100%" stop-color="#6B4C9A"/>
    </linearGradient>
    <linearGradient id="roofGradient" x1="0%" y1="0%" x2="0%" y2="100%">
      <stop offset="0%" stop-color="#8B6CB8"/>
      <stop offset="100%" stop-color="#6B4C9A"/>
    </linearGradient>
  </defs>

  <!-- House base -->
  <rect x="12" y="28" width="40" height="30" rx="3" fill="url(#homeGradient)"/>

  <!-- Roof -->
  <path d="M8 30L32 8L56 30H8Z" fill="url(#roofGradient)"/>
  <path d="M8 30L32 8L56 30H8Z" fill="url(#roofGradient)" stroke="#5B3C8A" stroke-width="2" stroke-linejoin="round"/>

  <!-- Door -->
  <rect x="26" y="38" width="12" height="20" rx="2" fill="#1A1A2E"/>
  <circle cx="36" cy="50" r="1.5" fill="#00D9FF"/>

  <!-- Windows -->
  <rect x="16" y="34" width="8" height="8" rx="1" fill="#1A1A2E"/>
  <rect x="40" y="34" width="8" height="8" rx="1" fill="#1A1A2E"/>

  <!-- Window glow -->
  <rect x="17" y="35" width="6" height="6" rx="0.5" fill="rgba(0,217,255,0.3)"/>
  <rect x="41" y="35" width="6" height="6" rx="0.5" fill="rgba(0,217,255,0.3)"/>

  <!-- Chimney -->
  <rect x="42" y="12" width="6" height="14" rx="1" fill="#5B3C8A"/>
</svg>
